<?xml version="1.0" encoding="us-ascii" standalone="no"?><svg xmlns="http://www.w3.org/2000/svg" xmlns:xlink="http://www.w3.org/1999/xlink" contentStyleType="text/css" height="461px" preserveAspectRatio="none" style="width:1041px;height:461px;background:#FFFFFF;" version="1.1" viewBox="0 0 1041 461" width="1041px" zoomAndPan="magnify"><defs/><g><rect fill="none" height="148.4688" style="stroke:#000000;stroke-width:1.5;" width="720.5" x="10" y="214.8281"/><line style="stroke:#181818;stroke-width:0.5;stroke-dasharray:5.0,5.0;" x1="52" x2="52" y1="81.2969" y2="380.2969"/><line style="stroke:#181818;stroke-width:0.5;stroke-dasharray:5.0,5.0;" x1="284.5" x2="284.5" y1="81.2969" y2="380.2969"/><line style="stroke:#181818;stroke-width:0.5;stroke-dasharray:5.0,5.0;" x1="643.5" x2="643.5" y1="81.2969" y2="380.2969"/><line style="stroke:#181818;stroke-width:0.5;stroke-dasharray:5.0,5.0;" x1="927.5" x2="927.5" y1="81.2969" y2="380.2969"/><text fill="#000000" font-family="sans-serif" font-size="14" lengthAdjust="spacing" textLength="59" x="20" y="77.9951">Employ&#233;</text><ellipse cx="52.5" cy="13.5" fill="#E2E2F0" rx="8" ry="8" style="stroke:#181818;stroke-width:0.5;"/><path d="M52.5,21.5 L52.5,48.5 M39.5,29.5 L65.5,29.5 M52.5,48.5 L39.5,63.5 M52.5,48.5 L65.5,63.5 " fill="none" style="stroke:#181818;stroke-width:0.5;"/><text fill="#000000" font-family="sans-serif" font-size="14" lengthAdjust="spacing" textLength="59" x="20" y="392.292">Employ&#233;</text><ellipse cx="52.5" cy="404.0938" fill="#E2E2F0" rx="8" ry="8" style="stroke:#181818;stroke-width:0.5;"/><path d="M52.5,412.0938 L52.5,439.0938 M39.5,420.0938 L65.5,420.0938 M52.5,439.0938 L39.5,454.0938 M52.5,439.0938 L65.5,454.0938 " fill="none" style="stroke:#181818;stroke-width:0.5;"/><text fill="#000000" font-family="sans-serif" font-size="14" lengthAdjust="spacing" textLength="114" x="224.5" y="77.9951">Formulaire HTML</text><path d="M264,37 L264,61 M264,49 L281,49 " fill="none" style="stroke:#181818;stroke-width:0.5;"/><ellipse cx="293" cy="49" fill="#E2E2F0" rx="12" ry="12" style="stroke:#181818;stroke-width:0.5;"/><text fill="#000000" font-family="sans-serif" font-size="14" lengthAdjust="spacing" textLength="114" x="224.5" y="392.292">Formulaire HTML</text><path d="M264,399.5938 L264,423.5938 M264,411.5938 L281,411.5938 " fill="none" style="stroke:#181818;stroke-width:0.5;"/><ellipse cx="293" cy="411.5938" fill="#E2E2F0" rx="12" ry="12" style="stroke:#181818;stroke-width:0.5;"/><text fill="#000000" font-family="sans-serif" font-size="14" lengthAdjust="spacing" textLength="148" x="566.5" y="77.9951">UC2_StockControleur</text><ellipse cx="643.5" cy="49" fill="#E2E2F0" rx="12" ry="12" style="stroke:#181818;stroke-width:0.5;"/><polygon fill="#181818" points="639.5,37,645.5,32,643.5,37,645.5,42,639.5,37" style="stroke:#181818;stroke-width:1.0;"/><text fill="#000000" font-family="sans-serif" font-size="14" lengthAdjust="spacing" textLength="148" x="566.5" y="392.292">UC2_StockControleur</text><ellipse cx="643.5" cy="411.5938" fill="#E2E2F0" rx="12" ry="12" style="stroke:#181818;stroke-width:0.5;"/><polygon fill="#181818" points="639.5,399.5938,645.5,394.5938,643.5,399.5938,645.5,404.5938,639.5,399.5938" style="stroke:#181818;stroke-width:1.0;"/><text fill="#000000" font-family="sans-serif" font-size="14" lengthAdjust="spacing" textLength="220" x="814.5" y="77.9951">DemandeReapprovisionnement</text><ellipse cx="927.5" cy="49" fill="#E2E2F0" rx="12" ry="12" style="stroke:#181818;stroke-width:0.5;"/><line style="stroke:#181818;stroke-width:0.5;" x1="915.5" x2="939.5" y1="63" y2="63"/><text fill="#000000" font-family="sans-serif" font-size="14" lengthAdjust="spacing" textLength="220" x="814.5" y="392.292">DemandeReapprovisionnement</text><ellipse cx="927.5" cy="411.5938" fill="#E2E2F0" rx="12" ry="12" style="stroke:#181818;stroke-width:0.5;"/><line style="stroke:#181818;stroke-width:0.5;" x1="915.5" x2="939.5" y1="425.5938" y2="425.5938"/><polygon fill="#181818" points="272.5,108.4297,282.5,112.4297,272.5,116.4297,276.5,112.4297" style="stroke:#181818;stroke-width:1.0;"/><line style="stroke:#181818;stroke-width:1.0;" x1="52.5" x2="278.5" y1="112.4297" y2="112.4297"/><text fill="#000000" font-family="sans-serif" font-size="13" lengthAdjust="spacing" textLength="208" x="59.5" y="107.3638">Saisir produit, magasin, quantit&#233;</text><polygon fill="#181818" points="631.5,137.5625,641.5,141.5625,631.5,145.5625,635.5,141.5625" style="stroke:#181818;stroke-width:1.0;"/><line style="stroke:#181818;stroke-width:1.0;" x1="284.5" x2="637.5" y1="141.5625" y2="141.5625"/><text fill="#000000" font-family="sans-serif" font-size="13" lengthAdjust="spacing" textLength="335" x="291.5" y="136.4966">creer_demande_reapprovisionnement(p_id, m_id, q)</text><polygon fill="#181818" points="915.5,166.6953,925.5,170.6953,915.5,174.6953,919.5,170.6953" style="stroke:#181818;stroke-width:1.0;"/><line style="stroke:#181818;stroke-width:1.0;" x1="643.5" x2="921.5" y1="170.6953" y2="170.6953"/><text fill="#000000" font-family="sans-serif" font-size="13" lengthAdjust="spacing" textLength="260" x="650.5" y="165.6294">.create(produit_id, magasin_id, quantite)</text><polygon fill="#181818" points="654.5,195.8281,644.5,199.8281,654.5,203.8281,650.5,199.8281" style="stroke:#181818;stroke-width:1.0;"/><line style="stroke:#181818;stroke-width:1.0;stroke-dasharray:2.0,2.0;" x1="648.5" x2="926.5" y1="199.8281" y2="199.8281"/><text fill="#000000" font-family="sans-serif" font-size="13" lengthAdjust="spacing" textLength="180" x="660.5" y="194.7622">Instance persist&#233;e ou erreur</text><path d="M10,214.8281 L74,214.8281 L74,221.9609 L64,231.9609 L10,231.9609 L10,214.8281 " fill="#EEEEEE" style="stroke:#000000;stroke-width:1.5;"/><rect fill="none" height="148.4688" style="stroke:#000000;stroke-width:1.5;" width="720.5" x="10" y="214.8281"/><text fill="#000000" font-family="sans-serif" font-size="13" font-weight="bold" lengthAdjust="spacing" textLength="19" x="25" y="227.895">alt</text><text fill="#000000" font-family="sans-serif" font-size="11" font-weight="bold" lengthAdjust="spacing" textLength="116" x="89" y="227.0386">[Cr&#233;ation r&#233;ussie]</text><polygon fill="#181818" points="295.5,249.0938,285.5,253.0938,295.5,257.0938,291.5,253.0938" style="stroke:#181818;stroke-width:1.0;"/><line style="stroke:#181818;stroke-width:1.0;stroke-dasharray:2.0,2.0;" x1="289.5" x2="642.5" y1="253.0938" y2="253.0938"/><text fill="#000000" font-family="sans-serif" font-size="13" lengthAdjust="spacing" textLength="28" x="301.5" y="248.0278">True</text><polygon fill="#181818" points="63.5,278.2266,53.5,282.2266,63.5,286.2266,59.5,282.2266" style="stroke:#181818;stroke-width:1.0;"/><line style="stroke:#181818;stroke-width:1.0;stroke-dasharray:2.0,2.0;" x1="57.5" x2="283.5" y1="282.2266" y2="282.2266"/><text fill="#000000" font-family="sans-serif" font-size="13" lengthAdjust="spacing" textLength="107" x="69.5" y="277.1606">Affichage succ&#232;s</text><line style="stroke:#000000;stroke-width:1.0;stroke-dasharray:2.0,2.0;" x1="10" x2="730.5" y1="291.2266" y2="291.2266"/><text fill="#000000" font-family="sans-serif" font-size="11" font-weight="bold" lengthAdjust="spacing" textLength="105" x="15" y="301.437">[&#201;chec cr&#233;ation]</text><polygon fill="#181818" points="295.5,322.1641,285.5,326.1641,295.5,330.1641,291.5,326.1641" style="stroke:#181818;stroke-width:1.0;"/><line style="stroke:#181818;stroke-width:1.0;stroke-dasharray:2.0,2.0;" x1="289.5" x2="642.5" y1="326.1641" y2="326.1641"/><text fill="#000000" font-family="sans-serif" font-size="13" lengthAdjust="spacing" textLength="33" x="301.5" y="321.0981">False</text><polygon fill="#181818" points="63.5,351.2969,53.5,355.2969,63.5,359.2969,59.5,355.2969" style="stroke:#181818;stroke-width:1.0;"/><line style="stroke:#181818;stroke-width:1.0;stroke-dasharray:2.0,2.0;" x1="57.5" x2="283.5" y1="355.2969" y2="355.2969"/><text fill="#000000" font-family="sans-serif" font-size="13" lengthAdjust="spacing" textLength="102" x="69.5" y="350.231">Affichage erreur</text><!--SRC=[XP11JiCm44NtFiKegrPgMR3i0WabL2319YthQ72chTN4JiSsKe_0JUWvSZ4cSIYBBjXOrlV__yqOTN0CJstNk7D_KHyksXhv3DdQSHiRD4pml7rxpG0z39hIpWPs3MJl-Nsr2KuVywHGvD4bkY8RJ92MWbgqDPM4NSVkqtZZhALMdaThKIhrouRbmmY05MnGZ0oIgAC92sXnZzxO1PmY3iKowEYKXC0ae9c8gph1AhwbpRhAr58qdgUv6cAIBae9tqaQ0yqcN38cOh8dACsLs9TNvelr0Qqcw8YzyJ8KWOj0pF8HIc4J8EV-Wa660Bb4xmqf6DFBlrst70SrxIFozJjMyBZR6Nt0FO6FMlVVNb7Z2VelVI0jEq_bjvrh5D-_fTEaPEiV]--></g></svg>