<?xml version="1.0" encoding="us-ascii" standalone="no"?><svg xmlns="http://www.w3.org/2000/svg" xmlns:xlink="http://www.w3.org/1999/xlink" contentStyleType="text/css" height="516px" preserveAspectRatio="none" style="width:802px;height:516px;background:#FFFFFF;" version="1.1" viewBox="0 0 802 516" width="802px" zoomAndPan="magnify"><defs/><g><rect fill="none" height="148.4688" style="stroke:#000000;stroke-width:1.5;" width="643.5" x="10" y="269.9609"/><line style="stroke:#181818;stroke-width:0.5;stroke-dasharray:5.0,5.0;" x1="44" x2="44" y1="81.2969" y2="435.4297"/><line style="stroke:#181818;stroke-width:0.5;stroke-dasharray:5.0,5.0;" x1="251" x2="251" y1="81.2969" y2="435.4297"/><line style="stroke:#181818;stroke-width:0.5;stroke-dasharray:5.0,5.0;" x1="561.5" x2="561.5" y1="81.2969" y2="435.4297"/><line style="stroke:#181818;stroke-width:0.5;stroke-dasharray:5.0,5.0;" x1="680.5" x2="680.5" y1="81.2969" y2="435.4297"/><text fill="#000000" font-family="sans-serif" font-size="14" lengthAdjust="spacing" textLength="43" x="20" y="77.9951">Admin</text><ellipse cx="44.5" cy="13.5" fill="#E2E2F0" rx="8" ry="8" style="stroke:#181818;stroke-width:0.5;"/><path d="M44.5,21.5 L44.5,48.5 M31.5,29.5 L57.5,29.5 M44.5,48.5 L31.5,63.5 M44.5,48.5 L57.5,63.5 " fill="none" style="stroke:#181818;stroke-width:0.5;"/><text fill="#000000" font-family="sans-serif" font-size="14" lengthAdjust="spacing" textLength="43" x="20" y="447.4248">Admin</text><ellipse cx="44.5" cy="459.2266" fill="#E2E2F0" rx="8" ry="8" style="stroke:#181818;stroke-width:0.5;"/><path d="M44.5,467.2266 L44.5,494.2266 M31.5,475.2266 L57.5,475.2266 M44.5,494.2266 L31.5,509.2266 M44.5,494.2266 L57.5,509.2266 " fill="none" style="stroke:#181818;stroke-width:0.5;"/><text fill="#000000" font-family="sans-serif" font-size="14" lengthAdjust="spacing" textLength="147" x="175" y="77.9951">Page modifier produit</text><path d="M231,37 L231,61 M231,49 L248,49 " fill="none" style="stroke:#181818;stroke-width:0.5;"/><ellipse cx="260" cy="49" fill="#E2E2F0" rx="12" ry="12" style="stroke:#181818;stroke-width:0.5;"/><text fill="#000000" font-family="sans-serif" font-size="14" lengthAdjust="spacing" textLength="147" x="175" y="447.4248">Page modifier produit</text><path d="M231,454.7266 L231,478.7266 M231,466.7266 L248,466.7266 " fill="none" style="stroke:#181818;stroke-width:0.5;"/><ellipse cx="260" cy="466.7266" fill="#E2E2F0" rx="12" ry="12" style="stroke:#181818;stroke-width:0.5;"/><text fill="#000000" font-family="sans-serif" font-size="14" lengthAdjust="spacing" textLength="158" x="479.5" y="77.9951">UC4_ProduitControleur</text><ellipse cx="561.5" cy="49" fill="#E2E2F0" rx="12" ry="12" style="stroke:#181818;stroke-width:0.5;"/><polygon fill="#181818" points="557.5,37,563.5,32,561.5,37,563.5,42,557.5,37" style="stroke:#181818;stroke-width:1.0;"/><text fill="#000000" font-family="sans-serif" font-size="14" lengthAdjust="spacing" textLength="158" x="479.5" y="447.4248">UC4_ProduitControleur</text><ellipse cx="561.5" cy="466.7266" fill="#E2E2F0" rx="12" ry="12" style="stroke:#181818;stroke-width:0.5;"/><polygon fill="#181818" points="557.5,454.7266,563.5,449.7266,561.5,454.7266,563.5,459.7266,557.5,454.7266" style="stroke:#181818;stroke-width:1.0;"/><text fill="#000000" font-family="sans-serif" font-size="14" lengthAdjust="spacing" textLength="49" x="653.5" y="77.9951">Produit</text><ellipse cx="681" cy="49" fill="#E2E2F0" rx="12" ry="12" style="stroke:#181818;stroke-width:0.5;"/><line style="stroke:#181818;stroke-width:0.5;" x1="669" x2="693" y1="63" y2="63"/><text fill="#000000" font-family="sans-serif" font-size="14" lengthAdjust="spacing" textLength="49" x="653.5" y="447.4248">Produit</text><ellipse cx="681" cy="466.7266" fill="#E2E2F0" rx="12" ry="12" style="stroke:#181818;stroke-width:0.5;"/><line style="stroke:#181818;stroke-width:0.5;" x1="669" x2="693" y1="480.7266" y2="480.7266"/><polygon fill="#181818" points="239.5,108.4297,249.5,112.4297,239.5,116.4297,243.5,112.4297" style="stroke:#181818;stroke-width:1.0;"/><line style="stroke:#181818;stroke-width:1.0;" x1="44.5" x2="245.5" y1="112.4297" y2="112.4297"/><text fill="#000000" font-family="sans-serif" font-size="13" lengthAdjust="spacing" textLength="183" x="51.5" y="107.3638">Remplit les champs modifi&#233;s</text><polygon fill="#181818" points="549.5,137.5625,559.5,141.5625,549.5,145.5625,553.5,141.5625" style="stroke:#181818;stroke-width:1.0;"/><line style="stroke:#181818;stroke-width:1.0;" x1="251.5" x2="555.5" y1="141.5625" y2="141.5625"/><text fill="#000000" font-family="sans-serif" font-size="13" lengthAdjust="spacing" textLength="286" x="258.5" y="136.4966">modifier_produit(p_id, nom, prix, description)</text><polygon fill="#181818" points="669,166.6953,679,170.6953,669,174.6953,673,170.6953" style="stroke:#181818;stroke-width:1.0;"/><line style="stroke:#181818;stroke-width:1.0;" x1="561.5" x2="675" y1="170.6953" y2="170.6953"/><text fill="#000000" font-family="sans-serif" font-size="13" lengthAdjust="spacing" textLength="94" x="568.5" y="165.6294">get(produit_id)</text><line style="stroke:#181818;stroke-width:1.0;" x1="681" x2="723" y1="199.8281" y2="199.8281"/><line style="stroke:#181818;stroke-width:1.0;" x1="723" x2="723" y1="199.8281" y2="212.8281"/><line style="stroke:#181818;stroke-width:1.0;" x1="682" x2="723" y1="212.8281" y2="212.8281"/><polygon fill="#181818" points="692,208.8281,682,212.8281,692,216.8281,688,212.8281" style="stroke:#181818;stroke-width:1.0;"/><text fill="#000000" font-family="sans-serif" font-size="13" lengthAdjust="spacing" textLength="107" x="688" y="194.7622">modifier champs</text><line style="stroke:#181818;stroke-width:1.0;" x1="681" x2="723" y1="241.9609" y2="241.9609"/><line style="stroke:#181818;stroke-width:1.0;" x1="723" x2="723" y1="241.9609" y2="254.9609"/><line style="stroke:#181818;stroke-width:1.0;" x1="682" x2="723" y1="254.9609" y2="254.9609"/><polygon fill="#181818" points="692,250.9609,682,254.9609,692,258.9609,688,254.9609" style="stroke:#181818;stroke-width:1.0;"/><text fill="#000000" font-family="sans-serif" font-size="13" lengthAdjust="spacing" textLength="40" x="688" y="236.895">save()</text><path d="M10,269.9609 L74,269.9609 L74,277.0938 L64,287.0938 L10,287.0938 L10,269.9609 " fill="#EEEEEE" style="stroke:#000000;stroke-width:1.5;"/><rect fill="none" height="148.4688" style="stroke:#000000;stroke-width:1.5;" width="643.5" x="10" y="269.9609"/><text fill="#000000" font-family="sans-serif" font-size="13" font-weight="bold" lengthAdjust="spacing" textLength="19" x="25" y="283.0278">alt</text><text fill="#000000" font-family="sans-serif" font-size="11" font-weight="bold" lengthAdjust="spacing" textLength="215" x="89" y="282.1714">[Succ&#232;s (modification effectu&#233;e)]</text><polygon fill="#181818" points="262.5,304.2266,252.5,308.2266,262.5,312.2266,258.5,308.2266" style="stroke:#181818;stroke-width:1.0;"/><line style="stroke:#181818;stroke-width:1.0;stroke-dasharray:2.0,2.0;" x1="256.5" x2="560.5" y1="308.2266" y2="308.2266"/><text fill="#000000" font-family="sans-serif" font-size="13" lengthAdjust="spacing" textLength="28" x="268.5" y="303.1606">True</text><polygon fill="#181818" points="55.5,333.3594,45.5,337.3594,55.5,341.3594,51.5,337.3594" style="stroke:#181818;stroke-width:1.0;"/><line style="stroke:#181818;stroke-width:1.0;stroke-dasharray:2.0,2.0;" x1="49.5" x2="250.5" y1="337.3594" y2="337.3594"/><text fill="#000000" font-family="sans-serif" font-size="13" lengthAdjust="spacing" textLength="82" x="61.5" y="332.2935">Confirmation</text><line style="stroke:#000000;stroke-width:1.0;stroke-dasharray:2.0,2.0;" x1="10" x2="653.5" y1="346.3594" y2="346.3594"/><text fill="#000000" font-family="sans-serif" font-size="11" font-weight="bold" lengthAdjust="spacing" textLength="232" x="15" y="356.5698">[&#201;chec (produit non trouv&#233; / erreur)]</text><polygon fill="#181818" points="262.5,377.2969,252.5,381.2969,262.5,385.2969,258.5,381.2969" style="stroke:#181818;stroke-width:1.0;"/><line style="stroke:#181818;stroke-width:1.0;stroke-dasharray:2.0,2.0;" x1="256.5" x2="560.5" y1="381.2969" y2="381.2969"/><text fill="#000000" font-family="sans-serif" font-size="13" lengthAdjust="spacing" textLength="33" x="268.5" y="376.231">False</text><polygon fill="#181818" points="55.5,406.4297,45.5,410.4297,55.5,414.4297,51.5,410.4297" style="stroke:#181818;stroke-width:1.0;"/><line style="stroke:#181818;stroke-width:1.0;stroke-dasharray:2.0,2.0;" x1="49.5" x2="250.5" y1="410.4297" y2="410.4297"/><text fill="#000000" font-family="sans-serif" font-size="13" lengthAdjust="spacing" textLength="93" x="61.5" y="405.3638">Erreur affich&#233;e</text><!--SRC=[RP5DQiCm48NtEiKZAniSkkagYq89pJhqPsrKQPm8BCde9xH7w4sQS_XYdKXEIo5BpRnltfkHLCa7F6fhd7ZtsMaPFh7QomF1Ucq6Gm5Jy3gRj8ACsFbWXV8k1JzYzRQzx_Urkwqrog7ek2F89PCkqnPUYEA3zKCPWmsUoKwZIHWfGXsbdUBYEf-ZA1hMyYYMNjFqIvfcwetkuBpjEA3vwA0fgc2cPBnhnGLYTh5c_a2Cr1U3hRXs_eb-LwvXRekYF57J2Y77X9UirFmTqLHIoOixQ1X8fJoVgHKe-TT_Ex-6J5ojst6vtcG3Fk1WWYqJ18sHC7-f8obSO_Ek3dpZV9hFk0E5mCU-OR2J3DzoU2e4vC11ZnoEFqZ_0000]--></g></svg>