<?xml version="1.0" encoding="us-ascii" standalone="no"?><svg xmlns="http://www.w3.org/2000/svg" xmlns:xlink="http://www.w3.org/1999/xlink" contentStyleType="text/css" height="600px" preserveAspectRatio="none" style="width:747px;height:600px;background:#FFFFFF;" version="1.1" viewBox="0 0 747 600" width="747px" zoomAndPan="magnify"><defs/><g><text fill="#000000" font-family="sans-serif" font-size="14" font-weight="bold" lengthAdjust="spacing" textLength="376" x="178.5" y="22.9951">Vue Logique - Magasin Central (version &#233;toil&#233;e)</text><!--cluster Sous-domaine : Logistique--><g id="cluster_Sous-domaine : Logistique"><rect fill="none" height="247" rx="2.5" ry="2.5" style="stroke:#000000;stroke-width:1.5;" width="466.5" x="274.5" y="44.2969"/><text fill="#000000" font-family="sans-serif" font-size="14" font-weight="bold" lengthAdjust="spacing" textLength="210" x="402.75" y="59.292">Sous-domaine : Logistique</text></g><!--cluster Sous-domaine : Supervision--><g id="cluster_Sous-domaine : Supervision"><rect fill="none" height="133" rx="2.5" ry="2.5" style="stroke:#000000;stroke-width:1.5;" width="237" x="7" y="253.2969"/><text fill="#000000" font-family="sans-serif" font-size="14" font-weight="bold" lengthAdjust="spacing" textLength="221" x="15" y="268.292">Sous-domaine : Supervision</text></g><!--cluster Sous-domaine : Ventes--><g id="cluster_Sous-domaine : Ventes"><rect fill="none" height="279" rx="2.5" ry="2.5" style="stroke:#000000;stroke-width:1.5;" width="415" x="272" y="315.2969"/><text fill="#000000" font-family="sans-serif" font-size="14" font-weight="bold" lengthAdjust="spacing" textLength="184" x="387.5" y="330.292">Sous-domaine : Ventes</text></g><!--class Magasin--><g id="elem_Magasin"><rect codeLine="10" fill="#F1F1F1" height="96.8906" id="Magasin" rx="2.5" ry="2.5" style="stroke:#181818;stroke-width:0.5;" width="107" x="297" y="78.7969"/><ellipse cx="320.1" cy="94.7969" fill="#ADD1B2" rx="11" ry="11" style="stroke:#181818;stroke-width:1.0;"/><path d="M323.0688,100.4375 Q322.4906,100.7344 321.85,100.875 Q321.2094,101.0313 320.5063,101.0313 Q318.0063,101.0313 316.6781,99.3906 Q315.3656,97.7344 315.3656,94.6094 Q315.3656,91.4844 316.6781,89.8281 Q318.0063,88.1719 320.5063,88.1719 Q321.2094,88.1719 321.85,88.3281 Q322.5063,88.4844 323.0688,88.7813 L323.0688,91.5 Q322.4438,90.9219 321.85,90.6563 Q321.2563,90.375 320.6313,90.375 Q319.2875,90.375 318.6,91.4531 Q317.9125,92.5156 317.9125,94.6094 Q317.9125,96.7031 318.6,97.7813 Q319.2875,98.8438 320.6313,98.8438 Q321.2563,98.8438 321.85,98.5781 Q322.4438,98.2969 323.0688,97.7188 L323.0688,100.4375 Z " fill="#000000"/><text fill="#000000" font-family="sans-serif" font-size="14" lengthAdjust="spacing" textLength="57" x="335.9" y="99.6436">Magasin</text><line style="stroke:#181818;stroke-width:0.5;" x1="298" x2="403" y1="110.7969" y2="110.7969"/><text fill="#000000" font-family="sans-serif" font-size="14" lengthAdjust="spacing" textLength="50" x="303" y="127.792">+id: int</text><text fill="#000000" font-family="sans-serif" font-size="14" lengthAdjust="spacing" textLength="70" x="303" y="144.0889">+nom: str</text><text fill="#000000" font-family="sans-serif" font-size="14" lengthAdjust="spacing" textLength="95" x="303" y="160.3857">+adresse: str</text><line style="stroke:#181818;stroke-width:0.5;" x1="298" x2="403" y1="167.6875" y2="167.6875"/></g><!--class StockCentral--><g id="elem_StockCentral"><rect codeLine="16" fill="#F1F1F1" height="64.2969" id="StockCentral" rx="2.5" ry="2.5" style="stroke:#181818;stroke-width:0.5;" width="120" x="290.5" y="211.2969"/><ellipse cx="305.5" cy="227.2969" fill="#ADD1B2" rx="11" ry="11" style="stroke:#181818;stroke-width:1.0;"/><path d="M308.4688,232.9375 Q307.8906,233.2344 307.25,233.375 Q306.6094,233.5313 305.9063,233.5313 Q303.4063,233.5313 302.0781,231.8906 Q300.7656,230.2344 300.7656,227.1094 Q300.7656,223.9844 302.0781,222.3281 Q303.4063,220.6719 305.9063,220.6719 Q306.6094,220.6719 307.25,220.8281 Q307.9063,220.9844 308.4688,221.2813 L308.4688,224 Q307.8438,223.4219 307.25,223.1563 Q306.6563,222.875 306.0313,222.875 Q304.6875,222.875 304,223.9531 Q303.3125,225.0156 303.3125,227.1094 Q303.3125,229.2031 304,230.2813 Q304.6875,231.3438 306.0313,231.3438 Q306.6563,231.3438 307.25,231.0781 Q307.8438,230.7969 308.4688,230.2188 L308.4688,232.9375 Z " fill="#000000"/><text fill="#000000" font-family="sans-serif" font-size="14" lengthAdjust="spacing" textLength="88" x="319.5" y="232.1436">StockCentral</text><line style="stroke:#181818;stroke-width:0.5;" x1="291.5" x2="409.5" y1="243.2969" y2="243.2969"/><text fill="#000000" font-family="sans-serif" font-size="14" lengthAdjust="spacing" textLength="95" x="296.5" y="260.292">+quantite: int</text><line style="stroke:#181818;stroke-width:0.5;" x1="291.5" x2="409.5" y1="267.5938" y2="267.5938"/></g><!--class StockLocal--><g id="elem_StockLocal"><rect codeLine="20" fill="#F1F1F1" height="64.2969" id="StockLocal" rx="2.5" ry="2.5" style="stroke:#181818;stroke-width:0.5;" width="107" x="545.5" y="207.2969"/><ellipse cx="560.95" cy="223.2969" fill="#ADD1B2" rx="11" ry="11" style="stroke:#181818;stroke-width:1.0;"/><path d="M563.9188,228.9375 Q563.3406,229.2344 562.7,229.375 Q562.0594,229.5313 561.3563,229.5313 Q558.8563,229.5313 557.5281,227.8906 Q556.2156,226.2344 556.2156,223.1094 Q556.2156,219.9844 557.5281,218.3281 Q558.8563,216.6719 561.3563,216.6719 Q562.0594,216.6719 562.7,216.8281 Q563.3563,216.9844 563.9188,217.2813 L563.9188,220 Q563.2938,219.4219 562.7,219.1563 Q562.1063,218.875 561.4813,218.875 Q560.1375,218.875 559.45,219.9531 Q558.7625,221.0156 558.7625,223.1094 Q558.7625,225.2031 559.45,226.2813 Q560.1375,227.3438 561.4813,227.3438 Q562.1063,227.3438 562.7,227.0781 Q563.2938,226.7969 563.9188,226.2188 L563.9188,228.9375 Z " fill="#000000"/><text fill="#000000" font-family="sans-serif" font-size="14" lengthAdjust="spacing" textLength="74" x="575.05" y="228.1436">StockLocal</text><line style="stroke:#181818;stroke-width:0.5;" x1="546.5" x2="651.5" y1="239.2969" y2="239.2969"/><text fill="#000000" font-family="sans-serif" font-size="14" lengthAdjust="spacing" textLength="95" x="551.5" y="256.292">+quantite: int</text><line style="stroke:#181818;stroke-width:0.5;" x1="546.5" x2="651.5" y1="263.5938" y2="263.5938"/></g><!--class DemandeReapprovisionnement--><g id="elem_DemandeReapprovisionnement"><rect codeLine="24" fill="#F1F1F1" height="80.5938" id="DemandeReapprovisionnement" rx="2.5" ry="2.5" style="stroke:#181818;stroke-width:0.5;" width="252" x="473" y="88.7969"/><ellipse cx="488" cy="104.7969" fill="#ADD1B2" rx="11" ry="11" style="stroke:#181818;stroke-width:1.0;"/><path d="M490.9688,110.4375 Q490.3906,110.7344 489.75,110.875 Q489.1094,111.0313 488.4063,111.0313 Q485.9063,111.0313 484.5781,109.3906 Q483.2656,107.7344 483.2656,104.6094 Q483.2656,101.4844 484.5781,99.8281 Q485.9063,98.1719 488.4063,98.1719 Q489.1094,98.1719 489.75,98.3281 Q490.4063,98.4844 490.9688,98.7813 L490.9688,101.5 Q490.3438,100.9219 489.75,100.6563 Q489.1563,100.375 488.5313,100.375 Q487.1875,100.375 486.5,101.4531 Q485.8125,102.5156 485.8125,104.6094 Q485.8125,106.7031 486.5,107.7813 Q487.1875,108.8438 488.5313,108.8438 Q489.1563,108.8438 489.75,108.5781 Q490.3438,108.2969 490.9688,107.7188 L490.9688,110.4375 Z " fill="#000000"/><text fill="#000000" font-family="sans-serif" font-size="14" lengthAdjust="spacing" textLength="220" x="502" y="109.6436">DemandeReapprovisionnement</text><line style="stroke:#181818;stroke-width:0.5;" x1="474" x2="724" y1="120.7969" y2="120.7969"/><text fill="#000000" font-family="sans-serif" font-size="14" lengthAdjust="spacing" textLength="95" x="479" y="137.792">+quantite: int</text><text fill="#000000" font-family="sans-serif" font-size="14" lengthAdjust="spacing" textLength="79" x="479" y="154.0889">+statut: str</text><line style="stroke:#181818;stroke-width:0.5;" x1="474" x2="724" y1="161.3906" y2="161.3906"/></g><!--class RapportPerformance--><g id="elem_RapportPerformance"><rect codeLine="31" fill="#F1F1F1" height="80.5938" id="RapportPerformance" rx="2.5" ry="2.5" style="stroke:#181818;stroke-width:0.5;" width="175" x="38" y="288.7969"/><ellipse cx="53" cy="304.7969" fill="#ADD1B2" rx="11" ry="11" style="stroke:#181818;stroke-width:1.0;"/><path d="M55.9688,310.4375 Q55.3906,310.7344 54.75,310.875 Q54.1094,311.0313 53.4063,311.0313 Q50.9063,311.0313 49.5781,309.3906 Q48.2656,307.7344 48.2656,304.6094 Q48.2656,301.4844 49.5781,299.8281 Q50.9063,298.1719 53.4063,298.1719 Q54.1094,298.1719 54.75,298.3281 Q55.4063,298.4844 55.9688,298.7813 L55.9688,301.5 Q55.3438,300.9219 54.75,300.6563 Q54.1563,300.375 53.5313,300.375 Q52.1875,300.375 51.5,301.4531 Q50.8125,302.5156 50.8125,304.6094 Q50.8125,306.7031 51.5,307.7813 Q52.1875,308.8438 53.5313,308.8438 Q54.1563,308.8438 54.75,308.5781 Q55.3438,308.2969 55.9688,307.7188 L55.9688,310.4375 Z " fill="#000000"/><text fill="#000000" font-family="sans-serif" font-size="14" lengthAdjust="spacing" textLength="143" x="67" y="309.6436">RapportPerformance</text><line style="stroke:#181818;stroke-width:0.5;" x1="39" x2="212" y1="320.7969" y2="320.7969"/><text fill="#000000" font-family="sans-serif" font-size="14" lengthAdjust="spacing" textLength="83" x="44" y="337.792">+date: date</text><text fill="#000000" font-family="sans-serif" font-size="14" lengthAdjust="spacing" textLength="134" x="44" y="354.0889">+total_ventes: float</text><line style="stroke:#181818;stroke-width:0.5;" x1="39" x2="212" y1="361.3906" y2="361.3906"/></g><!--class Produit--><g id="elem_Produit"><rect codeLine="38" fill="#F1F1F1" height="96.8906" id="Produit" rx="2.5" ry="2.5" style="stroke:#181818;stroke-width:0.5;" width="86" x="307.5" y="349.7969"/><ellipse cx="324.75" cy="365.7969" fill="#ADD1B2" rx="11" ry="11" style="stroke:#181818;stroke-width:1.0;"/><path d="M327.7188,371.4375 Q327.1406,371.7344 326.5,371.875 Q325.8594,372.0313 325.1563,372.0313 Q322.6563,372.0313 321.3281,370.3906 Q320.0156,368.7344 320.0156,365.6094 Q320.0156,362.4844 321.3281,360.8281 Q322.6563,359.1719 325.1563,359.1719 Q325.8594,359.1719 326.5,359.3281 Q327.1563,359.4844 327.7188,359.7813 L327.7188,362.5 Q327.0938,361.9219 326.5,361.6563 Q325.9063,361.375 325.2813,361.375 Q323.9375,361.375 323.25,362.4531 Q322.5625,363.5156 322.5625,365.6094 Q322.5625,367.7031 323.25,368.7813 Q323.9375,369.8438 325.2813,369.8438 Q325.9063,369.8438 326.5,369.5781 Q327.0938,369.2969 327.7188,368.7188 L327.7188,371.4375 Z " fill="#000000"/><text fill="#000000" font-family="sans-serif" font-size="14" lengthAdjust="spacing" textLength="49" x="339.25" y="370.6436">Produit</text><line style="stroke:#181818;stroke-width:0.5;" x1="308.5" x2="392.5" y1="381.7969" y2="381.7969"/><text fill="#000000" font-family="sans-serif" font-size="14" lengthAdjust="spacing" textLength="50" x="313.5" y="398.792">+id: int</text><text fill="#000000" font-family="sans-serif" font-size="14" lengthAdjust="spacing" textLength="70" x="313.5" y="415.0889">+nom: str</text><text fill="#000000" font-family="sans-serif" font-size="14" lengthAdjust="spacing" textLength="74" x="313.5" y="431.3857">+prix: float</text><line style="stroke:#181818;stroke-width:0.5;" x1="308.5" x2="392.5" y1="438.6875" y2="438.6875"/></g><!--class Vente--><g id="elem_Vente"><rect codeLine="44" fill="#F1F1F1" height="96.8906" id="Vente" rx="2.5" ry="2.5" style="stroke:#181818;stroke-width:0.5;" width="125" x="288" y="481.7969"/><ellipse cx="326.4" cy="497.7969" fill="#ADD1B2" rx="11" ry="11" style="stroke:#181818;stroke-width:1.0;"/><path d="M329.3688,503.4375 Q328.7906,503.7344 328.15,503.875 Q327.5094,504.0313 326.8063,504.0313 Q324.3063,504.0313 322.9781,502.3906 Q321.6656,500.7344 321.6656,497.6094 Q321.6656,494.4844 322.9781,492.8281 Q324.3063,491.1719 326.8063,491.1719 Q327.5094,491.1719 328.15,491.3281 Q328.8063,491.4844 329.3688,491.7813 L329.3688,494.5 Q328.7438,493.9219 328.15,493.6563 Q327.5563,493.375 326.9313,493.375 Q325.5875,493.375 324.9,494.4531 Q324.2125,495.5156 324.2125,497.6094 Q324.2125,499.7031 324.9,500.7813 Q325.5875,501.8438 326.9313,501.8438 Q327.5563,501.8438 328.15,501.5781 Q328.7438,501.2969 329.3688,500.7188 L329.3688,503.4375 Z " fill="#000000"/><text fill="#000000" font-family="sans-serif" font-size="14" lengthAdjust="spacing" textLength="41" x="345.6" y="502.6436">Vente</text><line style="stroke:#181818;stroke-width:0.5;" x1="289" x2="412" y1="513.7969" y2="513.7969"/><text fill="#000000" font-family="sans-serif" font-size="14" lengthAdjust="spacing" textLength="50" x="294" y="530.792">+id: int</text><text fill="#000000" font-family="sans-serif" font-size="14" lengthAdjust="spacing" textLength="113" x="294" y="547.0889">+date: datetime</text><text fill="#000000" font-family="sans-serif" font-size="14" lengthAdjust="spacing" textLength="80" x="294" y="563.3857">+total: float</text><line style="stroke:#181818;stroke-width:0.5;" x1="289" x2="412" y1="570.6875" y2="570.6875"/></g><!--class LigneVente--><g id="elem_LigneVente"><rect codeLine="50" fill="#F1F1F1" height="96.8906" id="LigneVente" rx="2.5" ry="2.5" style="stroke:#181818;stroke-width:0.5;" width="144" x="527" y="415.7969"/><ellipse cx="557.3" cy="431.7969" fill="#ADD1B2" rx="11" ry="11" style="stroke:#181818;stroke-width:1.0;"/><path d="M560.2688,437.4375 Q559.6906,437.7344 559.05,437.875 Q558.4094,438.0313 557.7063,438.0313 Q555.2063,438.0313 553.8781,436.3906 Q552.5656,434.7344 552.5656,431.6094 Q552.5656,428.4844 553.8781,426.8281 Q555.2063,425.1719 557.7063,425.1719 Q558.4094,425.1719 559.05,425.3281 Q559.7063,425.4844 560.2688,425.7813 L560.2688,428.5 Q559.6438,427.9219 559.05,427.6563 Q558.4563,427.375 557.8313,427.375 Q556.4875,427.375 555.8,428.4531 Q555.1125,429.5156 555.1125,431.6094 Q555.1125,433.7031 555.8,434.7813 Q556.4875,435.8438 557.8313,435.8438 Q558.4563,435.8438 559.05,435.5781 Q559.6438,435.2969 560.2688,434.7188 L560.2688,437.4375 Z " fill="#000000"/><text fill="#000000" font-family="sans-serif" font-size="14" lengthAdjust="spacing" textLength="78" x="574.7" y="436.6436">LigneVente</text><line style="stroke:#181818;stroke-width:0.5;" x1="528" x2="670" y1="447.7969" y2="447.7969"/><text fill="#000000" font-family="sans-serif" font-size="14" lengthAdjust="spacing" textLength="50" x="533" y="464.792">+id: int</text><text fill="#000000" font-family="sans-serif" font-size="14" lengthAdjust="spacing" textLength="95" x="533" y="481.0889">+quantite: int</text><text fill="#000000" font-family="sans-serif" font-size="14" lengthAdjust="spacing" textLength="132" x="533" y="497.3857">+prix_unitaire: float</text><line style="stroke:#181818;stroke-width:0.5;" x1="528" x2="670" y1="504.6875" y2="504.6875"/></g><!--link Magasin to StockLocal--><g id="link_Magasin_StockLocal"><path codeLine="57" d="M404.04,142.7969 C424.5,142.7969 443,142.7969 443,142.7969 C443,142.7969 443,241.2969 443,241.2969 C443,241.2969 494.19,241.2969 539.31,241.2969 " fill="none" id="Magasin-to-StockLocal" style="stroke:#181818;stroke-width:1.0;"/><polygon fill="#181818" points="545.31,241.2969,536.31,237.2969,540.31,241.2969,536.31,245.2969,545.31,241.2969" style="stroke:#181818;stroke-width:1.0;"/><text fill="#000000" font-family="sans-serif" font-size="13" lengthAdjust="spacing" textLength="54" x="444" y="236.7938">poss&#232;de</text><text fill="#000000" font-family="sans-serif" font-size="13" lengthAdjust="spacing" textLength="8" x="412.1316" y="158.1152">1</text><text fill="#000000" font-family="sans-serif" font-size="13" lengthAdjust="spacing" textLength="7" x="530.6251" y="254.6293">*</text></g><!--link Magasin to DemandeReapprovisionnement--><g id="link_Magasin_DemandeReapprovisionnement"><path codeLine="58" d="M404.11,115.7969 C424.45,115.7969 442.56,115.7969 466.77,115.7969 " fill="none" id="Magasin-to-DemandeReapprovisionnement" style="stroke:#181818;stroke-width:1.0;"/><polygon fill="#181818" points="472.77,115.7969,463.77,111.7969,467.77,115.7969,463.77,119.7969,472.77,115.7969" style="stroke:#181818;stroke-width:1.0;"/><text fill="#000000" font-family="sans-serif" font-size="13" lengthAdjust="spacing" textLength="52" x="385.44" y="111.8638">effectue</text><text fill="#000000" font-family="sans-serif" font-size="13" lengthAdjust="spacing" textLength="8" x="411.8513" y="127.3425">1</text><text fill="#000000" font-family="sans-serif" font-size="13" lengthAdjust="spacing" textLength="7" x="457.8646" y="127.5146">*</text></g><!--link Produit to StockCentral--><g id="link_Produit_StockCentral"><path codeLine="59" d="M351,349.6769 C351,325.5269 351,303.0169 351,281.5869 " fill="none" id="Produit-to-StockCentral" style="stroke:#181818;stroke-width:1.0;"/><polygon fill="#181818" points="351,275.5869,347,284.5869,351,280.5869,355,284.5869,351,275.5869" style="stroke:#181818;stroke-width:1.0;"/><text fill="#000000" font-family="sans-serif" font-size="13" lengthAdjust="spacing" textLength="77" x="273" y="325.7038">stock&#233; dans</text><text fill="#000000" font-family="sans-serif" font-size="13" lengthAdjust="spacing" textLength="8" x="342.5078" y="338.8689">1</text><text fill="#000000" font-family="sans-serif" font-size="13" lengthAdjust="spacing" textLength="8" x="342.2781" y="295.8435">1</text></g><!--link Produit to StockLocal--><g id="link_Produit_StockLocal"><path codeLine="60" d="M393.5,393.7969 C464.63,393.7969 599,393.7969 599,393.7969 C599,393.7969 599,322.5669 599,277.3069 " fill="none" id="Produit-to-StockLocal" style="stroke:#181818;stroke-width:1.0;"/><polygon fill="#181818" points="599,271.3069,595,280.3069,599,276.3069,603,280.3069,599,271.3069" style="stroke:#181818;stroke-width:1.0;"/><text fill="#000000" font-family="sans-serif" font-size="13" lengthAdjust="spacing" textLength="77" x="479.49" y="406.8638">stock&#233; dans</text><text fill="#000000" font-family="sans-serif" font-size="13" lengthAdjust="spacing" textLength="8" x="401.5781" y="406.4002">1</text><text fill="#000000" font-family="sans-serif" font-size="13" lengthAdjust="spacing" textLength="8" x="590.175" y="291.5058">1</text></g><!--link Produit to DemandeReapprovisionnement--><g id="link_Produit_DemandeReapprovisionnement"><path codeLine="61" d="M393.74,371.7969 C437.89,371.7969 500,371.7969 500,371.7969 C500,371.7969 500,244.9169 500,175.8869 " fill="none" id="Produit-to-DemandeReapprovisionnement" style="stroke:#181818;stroke-width:1.0;"/><polygon fill="#181818" points="500,169.8869,496,178.8869,500,174.8869,504,178.8869,500,169.8869" style="stroke:#181818;stroke-width:1.0;"/><text fill="#000000" font-family="sans-serif" font-size="13" lengthAdjust="spacing" textLength="61" x="438" y="320.0338">demand&#233;</text><text fill="#000000" font-family="sans-serif" font-size="13" lengthAdjust="spacing" textLength="8" x="401.5641" y="380.737">1</text><text fill="#000000" font-family="sans-serif" font-size="13" lengthAdjust="spacing" textLength="7" x="477.3047" y="189.3588">*</text></g><!--link Magasin to RapportPerformance--><g id="link_Magasin_RapportPerformance"><path codeLine="62" d="M296.73,127.2969 C230.31,127.2969 126,127.2969 126,127.2969 C126,127.2969 126,223.3969 126,282.4169 " fill="none" id="Magasin-to-RapportPerformance" style="stroke:#181818;stroke-width:1.0;"/><polygon fill="#181818" points="126,288.4169,130,279.4169,126,283.4169,122,279.4169,126,288.4169" style="stroke:#181818;stroke-width:1.0;"/><text fill="#000000" font-family="sans-serif" font-size="13" lengthAdjust="spacing" textLength="45" x="84.8" y="140.3638">g&#233;n&#232;re</text><text fill="#000000" font-family="sans-serif" font-size="13" lengthAdjust="spacing" textLength="8" x="280.9672" y="140.3879">1</text><text fill="#000000" font-family="sans-serif" font-size="13" lengthAdjust="spacing" textLength="7" x="118.5219" y="277.8162">*</text></g><!--link RapportPerformance to Vente--><g id="link_RapportPerformance_Vente"><path codeLine="63" d="M213.01,359.7969 C256.13,359.7969 299,359.7969 299,359.7969 C299,359.7969 299,425.0569 299,475.4369 " fill="none" id="RapportPerformance-to-Vente" style="stroke:#181818;stroke-width:1.0;"/><polygon fill="#181818" points="299,481.4369,303,472.4369,299,476.4369,295,472.4369,299,481.4369" style="stroke:#181818;stroke-width:1.0;"/><text fill="#000000" font-family="sans-serif" font-size="13" lengthAdjust="spacing" textLength="49" x="249" y="390.6938">analyse</text></g><!--reverse link Produit to LigneVente--><g id="link_Produit_LigneVente"><path codeLine="65" d="M399.5,431.2969 C436.17,431.2969 483.66,431.2969 526.88,431.2969 " fill="none" id="Produit-backto-LigneVente" style="stroke:#181818;stroke-width:1.0;"/><polygon fill="#181818" points="393.5,431.2969,402.5,435.2969,398.5,431.2969,402.5,427.2969,393.5,431.2969" style="stroke:#181818;stroke-width:1.0;"/><text fill="#000000" font-family="sans-serif" font-size="13" lengthAdjust="spacing" textLength="31" x="428.19" y="444.3638">vend</text><text fill="#000000" font-family="sans-serif" font-size="13" lengthAdjust="spacing" textLength="8" x="401.5781" y="450.3455">1</text><text fill="#000000" font-family="sans-serif" font-size="13" lengthAdjust="spacing" textLength="7" x="512.0817" y="440.7466">*</text></g><!--link Vente to LigneVente--><g id="link_Vente_LigneVente"><path codeLine="66" d="M413.21,497.2969 C447.71,497.2969 484.69,497.2969 520.62,497.2969 " fill="none" id="Vente-to-LigneVente" style="stroke:#181818;stroke-width:1.0;"/><polygon fill="#181818" points="526.62,497.2969,517.62,493.2969,521.62,497.2969,517.62,501.2969,526.62,497.2969" style="stroke:#181818;stroke-width:1.0;"/><text fill="#000000" font-family="sans-serif" font-size="13" lengthAdjust="spacing" textLength="52" x="416.91" y="493.3638">contient</text><text fill="#000000" font-family="sans-serif" font-size="13" lengthAdjust="spacing" textLength="8" x="420.9233" y="506.4293">1</text><text fill="#000000" font-family="sans-serif" font-size="13" lengthAdjust="spacing" textLength="7" x="511.7949" y="513.5528">*</text></g><!--SRC=[ZLJBRgGm4BpxArgSzY6apHMjLbfjBf4cKXIaNADUt93M69lOpMWdKVudV0S_jWR2X8cO91UWxN9LKTqWB8RWfYNOk8hlups5Iwmmi8K_PCMZWIyxye6TXRuJnwRlwAjIXae1SU2vkXFGxAcGY55XoxP1ZpKqM6onebpsKM7OHbiPMW0AWo7y5l7yjnMwA9pD-O7Wnm9Ys9Bi6mBdvSufzS89IUxQa6fNOmH0DfeFClXFu571H7ruaM45u3lh3DZAL5XNPn34JnLgJo7GlFAa3Xovk68x9_52TD-Y5HQQwTx2Dwxu5FYSQhIQhWcRnhiT3o5RggFOgSDnAGXAAwzEdqwdahSD-Obs6Sjrb8jvNf4ldOyE2fhbD0vImtMgnGcQsrqqH263qZYKZpHlHl1IxiextR9yeWkDvtzBcGF5IBfAyEfOk5wwNkNPS6NfDDbAseEbszQoO9pmDn7CuvMS9P2clo3vbYpxdq7ZGkYVDQqYtsb-1bIMyODfIStX7KwU9SSZESGNoxwB8TXm6ZzxUX_zaIyzRlRTwXkjp5K6LT_P_jcJMjaT3axTo00jcdqWTUJfPvgEp8k-PH37KQkfMAeVOUA_H3W-g_y0]--></g></svg>