<?xml version="1.0" encoding="us-ascii" standalone="no"?><svg xmlns="http://www.w3.org/2000/svg" xmlns:xlink="http://www.w3.org/1999/xlink" contentStyleType="text/css" height="524px" preserveAspectRatio="none" style="width:725px;height:524px;background:#FFFFFF;" version="1.1" viewBox="0 0 725 524" width="725px" zoomAndPan="magnify"><defs/><g><!--cluster magasin--><g id="cluster_magasin"><path d="M8.5,6 L74.5,6 A3.75,3.75 0 0 1 77,8.5 L84,28.2969 L715.5,28.2969 A2.5,2.5 0 0 1 718,30.7969 L718,514.5 A2.5,2.5 0 0 1 715.5,517 L8.5,517 A2.5,2.5 0 0 1 6,514.5 L6,8.5 A2.5,2.5 0 0 1 8.5,6 " fill="none" style="stroke:#000000;stroke-width:1.5;"/><line style="stroke:#000000;stroke-width:1.5;" x1="6" x2="84" y1="28.2969" y2="28.2969"/><text fill="#000000" font-family="sans-serif" font-size="14" font-weight="bold" lengthAdjust="spacing" textLength="65" x="10" y="20.9951">magasin</text></g><!--cluster models--><g id="cluster_models"><path d="M32.5,396 L90.5,396 A3.75,3.75 0 0 1 93,398.5 L100,418.2969 L659.5,418.2969 A2.5,2.5 0 0 1 662,420.7969 L662,490.5 A2.5,2.5 0 0 1 659.5,493 L32.5,493 A2.5,2.5 0 0 1 30,490.5 L30,398.5 A2.5,2.5 0 0 1 32.5,396 " fill="none" style="stroke:#000000;stroke-width:1.5;"/><line style="stroke:#000000;stroke-width:1.5;" x1="30" x2="100" y1="418.2969" y2="418.2969"/><text fill="#000000" font-family="sans-serif" font-size="14" font-weight="bold" lengthAdjust="spacing" textLength="57" x="34" y="410.9951">models</text></g><!--entity C--><g id="elem_C"><rect fill="#F1F1F1" height="46.2969" rx="2.5" ry="2.5" style="stroke:#181818;stroke-width:0.5;" width="113" x="264.5" y="287"/><rect fill="#F1F1F1" height="10" style="stroke:#181818;stroke-width:0.5;" width="15" x="357.5" y="292"/><rect fill="#F1F1F1" height="2" style="stroke:#181818;stroke-width:0.5;" width="4" x="355.5" y="294"/><rect fill="#F1F1F1" height="2" style="stroke:#181818;stroke-width:0.5;" width="4" x="355.5" y="298"/><text fill="#000000" font-family="sans-serif" font-size="14" lengthAdjust="spacing" textLength="73" x="279.5" y="319.9951">controllers</text></g><!--entity V--><g id="elem_V"><rect fill="#F1F1F1" height="46.2969" rx="2.5" ry="2.5" style="stroke:#181818;stroke-width:0.5;" width="78" x="353" y="164"/><rect fill="#F1F1F1" height="10" style="stroke:#181818;stroke-width:0.5;" width="15" x="411" y="169"/><rect fill="#F1F1F1" height="2" style="stroke:#181818;stroke-width:0.5;" width="4" x="409" y="171"/><rect fill="#F1F1F1" height="2" style="stroke:#181818;stroke-width:0.5;" width="4" x="409" y="175"/><text fill="#000000" font-family="sans-serif" font-size="14" lengthAdjust="spacing" textLength="38" x="368" y="196.9951">views</text></g><!--entity T--><g id="elem_T"><rect fill="#F1F1F1" height="46.2969" rx="2.5" ry="2.5" style="stroke:#181818;stroke-width:0.5;" width="109" x="412.5" y="287"/><rect fill="#F1F1F1" height="10" style="stroke:#181818;stroke-width:0.5;" width="15" x="501.5" y="292"/><rect fill="#F1F1F1" height="2" style="stroke:#181818;stroke-width:0.5;" width="4" x="499.5" y="294"/><rect fill="#F1F1F1" height="2" style="stroke:#181818;stroke-width:0.5;" width="4" x="499.5" y="298"/><text fill="#000000" font-family="sans-serif" font-size="14" lengthAdjust="spacing" textLength="69" x="427.5" y="319.9951">templates</text></g><!--entity U--><g id="elem_U"><rect fill="#F1F1F1" height="46.2969" rx="2.5" ry="2.5" style="stroke:#181818;stroke-width:0.5;" width="85" x="349.5" y="41"/><rect fill="#F1F1F1" height="10" style="stroke:#181818;stroke-width:0.5;" width="15" x="414.5" y="46"/><rect fill="#F1F1F1" height="2" style="stroke:#181818;stroke-width:0.5;" width="4" x="412.5" y="48"/><rect fill="#F1F1F1" height="2" style="stroke:#181818;stroke-width:0.5;" width="4" x="412.5" y="52"/><text fill="#000000" font-family="sans-serif" font-size="14" lengthAdjust="spacing" textLength="45" x="364.5" y="73.9951">urls.py</text></g><!--entity S1--><g id="elem_S1"><rect fill="#F1F1F1" height="46.2969" rx="2.5" ry="2.5" style="stroke:#181818;stroke-width:0.5;" width="97" x="45.5" y="431"/><rect fill="#F1F1F1" height="10" style="stroke:#181818;stroke-width:0.5;" width="15" x="122.5" y="436"/><rect fill="#F1F1F1" height="2" style="stroke:#181818;stroke-width:0.5;" width="4" x="120.5" y="438"/><rect fill="#F1F1F1" height="2" style="stroke:#181818;stroke-width:0.5;" width="4" x="120.5" y="442"/><text fill="#000000" font-family="sans-serif" font-size="14" lengthAdjust="spacing" textLength="57" x="60.5" y="463.9951">Magasin</text></g><!--entity S2--><g id="elem_S2"><rect fill="#F1F1F1" height="46.2969" rx="2.5" ry="2.5" style="stroke:#181818;stroke-width:0.5;" width="89" x="177.5" y="431"/><rect fill="#F1F1F1" height="10" style="stroke:#181818;stroke-width:0.5;" width="15" x="246.5" y="436"/><rect fill="#F1F1F1" height="2" style="stroke:#181818;stroke-width:0.5;" width="4" x="244.5" y="438"/><rect fill="#F1F1F1" height="2" style="stroke:#181818;stroke-width:0.5;" width="4" x="244.5" y="442"/><text fill="#000000" font-family="sans-serif" font-size="14" lengthAdjust="spacing" textLength="49" x="192.5" y="463.9951">Produit</text></g><!--entity S3--><g id="elem_S3"><rect fill="#F1F1F1" height="46.2969" rx="2.5" ry="2.5" style="stroke:#181818;stroke-width:0.5;" width="79" x="301.5" y="431"/><rect fill="#F1F1F1" height="10" style="stroke:#181818;stroke-width:0.5;" width="15" x="360.5" y="436"/><rect fill="#F1F1F1" height="2" style="stroke:#181818;stroke-width:0.5;" width="4" x="358.5" y="438"/><rect fill="#F1F1F1" height="2" style="stroke:#181818;stroke-width:0.5;" width="4" x="358.5" y="442"/><text fill="#000000" font-family="sans-serif" font-size="14" lengthAdjust="spacing" textLength="39" x="316.5" y="463.9951">Stock</text></g><!--entity S4--><g id="elem_S4"><rect fill="#F1F1F1" height="46.2969" rx="2.5" ry="2.5" style="stroke:#181818;stroke-width:0.5;" width="81" x="415.5" y="431"/><rect fill="#F1F1F1" height="10" style="stroke:#181818;stroke-width:0.5;" width="15" x="476.5" y="436"/><rect fill="#F1F1F1" height="2" style="stroke:#181818;stroke-width:0.5;" width="4" x="474.5" y="438"/><rect fill="#F1F1F1" height="2" style="stroke:#181818;stroke-width:0.5;" width="4" x="474.5" y="442"/><text fill="#000000" font-family="sans-serif" font-size="14" lengthAdjust="spacing" textLength="41" x="430.5" y="463.9951">Vente</text></g><!--entity S5--><g id="elem_S5"><rect fill="#F1F1F1" height="46.2969" rx="2.5" ry="2.5" style="stroke:#181818;stroke-width:0.5;" width="114" x="532" y="431"/><rect fill="#F1F1F1" height="10" style="stroke:#181818;stroke-width:0.5;" width="15" x="626" y="436"/><rect fill="#F1F1F1" height="2" style="stroke:#181818;stroke-width:0.5;" width="4" x="624" y="438"/><rect fill="#F1F1F1" height="2" style="stroke:#181818;stroke-width:0.5;" width="4" x="624" y="442"/><text fill="#000000" font-family="sans-serif" font-size="14" lengthAdjust="spacing" textLength="74" x="547" y="463.9951">ligneVente</text></g><!--link C to S1--><g id="link_C_S1"><path d="M264.48,317.94 C209.35,325.89 130.82,340.76 110,363 C93.08,381.07 90.5944,404.545 91.4244,424.805 " fill="none" id="C-to-S1" style="stroke:#181818;stroke-width:1.0;"/><polygon fill="#181818" points="91.67,430.8,95.2982,421.6438,91.4653,425.8042,87.305,421.9713,91.67,430.8" style="stroke:#181818;stroke-width:1.0;"/><text fill="#000000" font-family="sans-serif" font-size="13" lengthAdjust="spacing" textLength="95" x="111" y="376.0669">g&#232;re magasins</text></g><!--link C to S2--><g id="link_C_S2"><path d="M264.36,327.98 C247.8,335.87 231.59,347.13 222,363 C209.64,383.46 210.8493,405.7314 214.7993,425.0714 " fill="none" id="C-to-S2" style="stroke:#181818;stroke-width:1.0;"/><polygon fill="#181818" points="216,430.95,218.1181,421.3316,214.9995,426.0511,210.2799,422.9325,216,430.95" style="stroke:#181818;stroke-width:1.0;"/><text fill="#000000" font-family="sans-serif" font-size="13" lengthAdjust="spacing" textLength="85" x="223" y="376.0669">g&#232;re produits</text></g><!--link C to S3--><g id="link_C_S3"><path d="M319.45,333 C318.87,342.26 318.28,353.15 318,363 C317.78,370.55 316.85,372.53 318,380 C320.69,397.47 324.718,410.8591 329.958,425.0991 " fill="none" id="C-to-S3" style="stroke:#181818;stroke-width:1.0;"/><polygon fill="#181818" points="332.03,430.73,332.6759,420.9023,330.3033,426.0376,325.168,423.6651,332.03,430.73" style="stroke:#181818;stroke-width:1.0;"/><text fill="#000000" font-family="sans-serif" font-size="13" lengthAdjust="spacing" textLength="67" x="319" y="376.0669">g&#232;re stock</text></g><!--link C to S4--><g id="link_C_S4"><path d="M355.1,333.13 C367.1,341.73 380.26,352.12 391,363 C411.58,383.85 427.4281,406.5957 439.5181,425.7557 " fill="none" id="C-to-S4" style="stroke:#181818;stroke-width:1.0;"/><polygon fill="#181818" points="442.72,430.83,441.3,421.084,440.0518,426.6015,434.5344,425.3532,442.72,430.83" style="stroke:#181818;stroke-width:1.0;"/><text fill="#000000" font-family="sans-serif" font-size="13" lengthAdjust="spacing" textLength="76" x="406" y="376.0669">g&#232;re ventes</text></g><!--link C to S5--><g id="link_C_S5"><path d="M377.83,328.06 C426.23,342.64 488.4,361.51 491,363 C522.28,380.9 547.8012,405.9547 566.1212,426.2647 " fill="none" id="C-to-S5" style="stroke:#181818;stroke-width:1.0;"/><polygon fill="#181818" points="570.14,430.72,567.0821,421.3579,566.791,427.0073,561.1417,426.7162,570.14,430.72" style="stroke:#181818;stroke-width:1.0;"/><text fill="#000000" font-family="sans-serif" font-size="13" lengthAdjust="spacing" textLength="152" x="516" y="376.0669">g&#232;re les lignes de vente</text></g><!--link V to C--><g id="link_V_C"><path d="M352.89,208.98 C341.58,217.09 330.53,227.48 324,240 C316.52,254.35 315.5551,266.7839 316.8251,280.9739 " fill="none" id="V-to-C" style="stroke:#181818;stroke-width:1.0;"/><polygon fill="#181818" points="317.36,286.95,320.5418,277.6293,316.9143,281.9699,312.5736,278.3424,317.36,286.95" style="stroke:#181818;stroke-width:1.0;"/><text fill="#000000" font-family="sans-serif" font-size="13" lengthAdjust="spacing" textLength="96" x="325" y="253.0669">appelle logique</text></g><!--link U to V--><g id="link_U_V"><path d="M392,87.19 C392,109.03 392,136.16 392,157.95 " fill="none" id="U-to-V" style="stroke:#181818;stroke-width:1.0;"/><polygon fill="#181818" points="392,163.95,396,154.95,392,158.95,388,154.95,392,163.95" style="stroke:#181818;stroke-width:1.0;"/><text fill="#000000" font-family="sans-serif" font-size="13" lengthAdjust="spacing" textLength="79" x="393" y="130.0669">redirige vers</text></g><!--link V to T--><g id="link_V_T"><path d="M406.77,210.13 C412.82,219.32 419.84,230.12 426,240 C435.66,255.49 443.1392,268.0118 451.0992,281.6118 " fill="none" id="V-to-T" style="stroke:#181818;stroke-width:1.0;"/><polygon fill="#181818" points="454.13,286.79,453.036,277.0021,451.6043,282.4748,446.1316,281.0432,454.13,286.79" style="stroke:#181818;stroke-width:1.0;"/><text fill="#000000" font-family="sans-serif" font-size="13" lengthAdjust="spacing" textLength="146" x="437" y="253.0669">affiche les pages HTML</text></g><!--SRC=[JP0zRiCm34Ptdu8NI87yBHswUEdG00NYU0ao23QZ2b4iLPHJ547kqtlaOXN5Lh4tlVVneoolkfFI26Ub5Pa1hbK5iE_S48Ep5WCTG17K32y6l-JOyZ7YsLiLKL33Q0oMdlnt1Zikyl_jhaTBgHpIjz_8hXpRpeMz1zUF9WfR2Dj6rvs4B8MqE4GKiX9YZHvmWjS9ttXr3RFPIwg7Pz3tdr3-a1vkKPoNxHEtB8xu5W-nAkB2MoSZws8i4kIB4VH_kHHhSwnEAUKzfiS5wxJv7DdjickJ2zYRO3IF1IfJ3KyTZwRxa7QVNfNWjTcyLRTV]--></g></svg>