<?xml version="1.0" encoding="us-ascii" standalone="no"?><svg xmlns="http://www.w3.org/2000/svg" xmlns:xlink="http://www.w3.org/1999/xlink" contentStyleType="text/css" height="856px" preserveAspectRatio="none" style="width:1237px;height:856px;background:#FFFFFF;" version="1.1" viewBox="0 0 1237 856" width="1237px" zoomAndPan="magnify"><defs/><g><rect fill="none" height="543.7969" style="stroke:#000000;stroke-width:1.5;" width="1220" x="10" y="214.8281"/><line style="stroke:#181818;stroke-width:0.5;stroke-dasharray:5.0,5.0;" x1="44" x2="44" y1="81.2969" y2="775.625"/><line style="stroke:#181818;stroke-width:0.5;stroke-dasharray:5.0,5.0;" x1="271" x2="271" y1="81.2969" y2="775.625"/><line style="stroke:#181818;stroke-width:0.5;stroke-dasharray:5.0,5.0;" x1="538" x2="538" y1="81.2969" y2="775.625"/><line style="stroke:#181818;stroke-width:0.5;stroke-dasharray:5.0,5.0;" x1="752" x2="752" y1="81.2969" y2="775.625"/><line style="stroke:#181818;stroke-width:0.5;stroke-dasharray:5.0,5.0;" x1="922" x2="922" y1="81.2969" y2="775.625"/><line style="stroke:#181818;stroke-width:0.5;stroke-dasharray:5.0,5.0;" x1="1076" x2="1076" y1="81.2969" y2="775.625"/><text fill="#000000" font-family="sans-serif" font-size="14" lengthAdjust="spacing" textLength="43" x="20" y="77.9951">Admin</text><ellipse cx="44.5" cy="13.5" fill="#E2E2F0" rx="8" ry="8" style="stroke:#181818;stroke-width:0.5;"/><path d="M44.5,21.5 L44.5,48.5 M31.5,29.5 L57.5,29.5 M44.5,48.5 L31.5,63.5 M44.5,48.5 L57.5,63.5 " fill="none" style="stroke:#181818;stroke-width:0.5;"/><text fill="#000000" font-family="sans-serif" font-size="14" lengthAdjust="spacing" textLength="43" x="20" y="787.6201">Admin</text><ellipse cx="44.5" cy="799.4219" fill="#E2E2F0" rx="8" ry="8" style="stroke:#181818;stroke-width:0.5;"/><path d="M44.5,807.4219 L44.5,834.4219 M31.5,815.4219 L57.5,815.4219 M44.5,834.4219 L31.5,849.4219 M44.5,834.4219 L57.5,849.4219 " fill="none" style="stroke:#181818;stroke-width:0.5;"/><text fill="#000000" font-family="sans-serif" font-size="14" lengthAdjust="spacing" textLength="103" x="217" y="77.9951">Page validation</text><path d="M251,37 L251,61 M251,49 L268,49 " fill="none" style="stroke:#181818;stroke-width:0.5;"/><ellipse cx="280" cy="49" fill="#E2E2F0" rx="12" ry="12" style="stroke:#181818;stroke-width:0.5;"/><text fill="#000000" font-family="sans-serif" font-size="14" lengthAdjust="spacing" textLength="103" x="217" y="787.6201">Page validation</text><path d="M251,794.9219 L251,818.9219 M251,806.9219 L268,806.9219 " fill="none" style="stroke:#181818;stroke-width:0.5;"/><ellipse cx="280" cy="806.9219" fill="#E2E2F0" rx="12" ry="12" style="stroke:#181818;stroke-width:0.5;"/><text fill="#000000" font-family="sans-serif" font-size="14" lengthAdjust="spacing" textLength="175" x="448" y="77.9951">UC6_ValidationControleur</text><ellipse cx="538.5" cy="49" fill="#E2E2F0" rx="12" ry="12" style="stroke:#181818;stroke-width:0.5;"/><polygon fill="#181818" points="534.5,37,540.5,32,538.5,37,540.5,42,534.5,37" style="stroke:#181818;stroke-width:1.0;"/><text fill="#000000" font-family="sans-serif" font-size="14" lengthAdjust="spacing" textLength="175" x="448" y="787.6201">UC6_ValidationControleur</text><ellipse cx="538.5" cy="806.9219" fill="#E2E2F0" rx="12" ry="12" style="stroke:#181818;stroke-width:0.5;"/><polygon fill="#181818" points="534.5,794.9219,540.5,789.9219,538.5,794.9219,540.5,799.9219,534.5,794.9219" style="stroke:#181818;stroke-width:1.0;"/><text fill="#000000" font-family="sans-serif" font-size="14" lengthAdjust="spacing" textLength="220" x="639" y="77.9951">DemandeReapprovisionnement</text><ellipse cx="752" cy="49" fill="#E2E2F0" rx="12" ry="12" style="stroke:#181818;stroke-width:0.5;"/><line style="stroke:#181818;stroke-width:0.5;" x1="740" x2="764" y1="63" y2="63"/><text fill="#000000" font-family="sans-serif" font-size="14" lengthAdjust="spacing" textLength="220" x="639" y="787.6201">DemandeReapprovisionnement</text><ellipse cx="752" cy="806.9219" fill="#E2E2F0" rx="12" ry="12" style="stroke:#181818;stroke-width:0.5;"/><line style="stroke:#181818;stroke-width:0.5;" x1="740" x2="764" y1="820.9219" y2="820.9219"/><text fill="#000000" font-family="sans-serif" font-size="14" lengthAdjust="spacing" textLength="88" x="875" y="77.9951">StockCentral</text><ellipse cx="922" cy="49" fill="#E2E2F0" rx="12" ry="12" style="stroke:#181818;stroke-width:0.5;"/><line style="stroke:#181818;stroke-width:0.5;" x1="910" x2="934" y1="63" y2="63"/><text fill="#000000" font-family="sans-serif" font-size="14" lengthAdjust="spacing" textLength="88" x="875" y="787.6201">StockCentral</text><ellipse cx="922" cy="806.9219" fill="#E2E2F0" rx="12" ry="12" style="stroke:#181818;stroke-width:0.5;"/><line style="stroke:#181818;stroke-width:0.5;" x1="910" x2="934" y1="820.9219" y2="820.9219"/><text fill="#000000" font-family="sans-serif" font-size="14" lengthAdjust="spacing" textLength="74" x="1036" y="77.9951">StockLocal</text><ellipse cx="1076" cy="49" fill="#E2E2F0" rx="12" ry="12" style="stroke:#181818;stroke-width:0.5;"/><line style="stroke:#181818;stroke-width:0.5;" x1="1064" x2="1088" y1="63" y2="63"/><text fill="#000000" font-family="sans-serif" font-size="14" lengthAdjust="spacing" textLength="74" x="1036" y="787.6201">StockLocal</text><ellipse cx="1076" cy="806.9219" fill="#E2E2F0" rx="12" ry="12" style="stroke:#181818;stroke-width:0.5;"/><line style="stroke:#181818;stroke-width:0.5;" x1="1064" x2="1088" y1="820.9219" y2="820.9219"/><polygon fill="#181818" points="259.5,108.4297,269.5,112.4297,259.5,116.4297,263.5,112.4297" style="stroke:#181818;stroke-width:1.0;"/><line style="stroke:#181818;stroke-width:1.0;" x1="44.5" x2="265.5" y1="112.4297" y2="112.4297"/><text fill="#000000" font-family="sans-serif" font-size="13" lengthAdjust="spacing" textLength="203" x="51.5" y="107.3638">Clique sur "Valider" ou "Refuser"</text><polygon fill="#181818" points="526.5,137.5625,536.5,141.5625,526.5,145.5625,530.5,141.5625" style="stroke:#181818;stroke-width:1.0;"/><line style="stroke:#181818;stroke-width:1.0;" x1="271.5" x2="532.5" y1="141.5625" y2="141.5625"/><text fill="#000000" font-family="sans-serif" font-size="13" lengthAdjust="spacing" textLength="243" x="278.5" y="136.4966">traiter_demande(demande_id, action)</text><polygon fill="#181818" points="740,166.6953,750,170.6953,740,174.6953,744,170.6953" style="stroke:#181818;stroke-width:1.0;"/><line style="stroke:#181818;stroke-width:1.0;" x1="538.5" x2="746" y1="170.6953" y2="170.6953"/><text fill="#000000" font-family="sans-serif" font-size="13" lengthAdjust="spacing" textLength="46" x="545.5" y="165.6294">.get(id)</text><polygon fill="#181818" points="549.5,195.8281,539.5,199.8281,549.5,203.8281,545.5,199.8281" style="stroke:#181818;stroke-width:1.0;"/><line style="stroke:#181818;stroke-width:1.0;stroke-dasharray:2.0,2.0;" x1="543.5" x2="751" y1="199.8281" y2="199.8281"/><text fill="#000000" font-family="sans-serif" font-size="13" lengthAdjust="spacing" textLength="169" x="555.5" y="194.7622">produit, magasin, quantite</text><path d="M10,214.8281 L74,214.8281 L74,221.9609 L64,231.9609 L10,231.9609 L10,214.8281 " fill="#EEEEEE" style="stroke:#000000;stroke-width:1.5;"/><rect fill="none" height="543.7969" style="stroke:#000000;stroke-width:1.5;" width="1220" x="10" y="214.8281"/><text fill="#000000" font-family="sans-serif" font-size="13" font-weight="bold" lengthAdjust="spacing" textLength="19" x="25" y="227.895">alt</text><text fill="#000000" font-family="sans-serif" font-size="11" font-weight="bold" lengthAdjust="spacing" textLength="249" x="89" y="227.0386">[Action == "Valider" et stock suffisant]</text><polygon fill="#181818" points="910,249.0938,920,253.0938,910,257.0938,914,253.0938" style="stroke:#181818;stroke-width:1.0;"/><line style="stroke:#181818;stroke-width:1.0;" x1="538.5" x2="916" y1="253.0938" y2="253.0938"/><text fill="#000000" font-family="sans-serif" font-size="13" lengthAdjust="spacing" textLength="80" x="545.5" y="248.0278">.get(produit)</text><polygon fill="#181818" points="1064,278.2266,1074,282.2266,1064,286.2266,1068,282.2266" style="stroke:#181818;stroke-width:1.0;"/><line style="stroke:#181818;stroke-width:1.0;" x1="538.5" x2="1070" y1="282.2266" y2="282.2266"/><text fill="#000000" font-family="sans-serif" font-size="13" lengthAdjust="spacing" textLength="358" x="545.5" y="277.1606">get_or_create(produit, magasin, defaults={quantite:0})</text><line style="stroke:#181818;stroke-width:1.0;" x1="922" x2="964" y1="311.3594" y2="311.3594"/><line style="stroke:#181818;stroke-width:1.0;" x1="964" x2="964" y1="311.3594" y2="324.3594"/><line style="stroke:#181818;stroke-width:1.0;" x1="923" x2="964" y1="324.3594" y2="324.3594"/><polygon fill="#181818" points="933,320.3594,923,324.3594,933,328.3594,929,324.3594" style="stroke:#181818;stroke-width:1.0;"/><text fill="#000000" font-family="sans-serif" font-size="13" lengthAdjust="spacing" textLength="140" x="929" y="306.2935">d&#233;cr&#233;menter quantit&#233;</text><line style="stroke:#181818;stroke-width:1.0;" x1="1076" x2="1118" y1="353.4922" y2="353.4922"/><line style="stroke:#181818;stroke-width:1.0;" x1="1118" x2="1118" y1="353.4922" y2="366.4922"/><line style="stroke:#181818;stroke-width:1.0;" x1="1077" x2="1118" y1="366.4922" y2="366.4922"/><polygon fill="#181818" points="1087,362.4922,1077,366.4922,1087,370.4922,1083,366.4922" style="stroke:#181818;stroke-width:1.0;"/><text fill="#000000" font-family="sans-serif" font-size="13" lengthAdjust="spacing" textLength="135" x="1083" y="348.4263">incr&#233;menter quantit&#233;</text><line style="stroke:#181818;stroke-width:1.0;" x1="922" x2="964" y1="395.625" y2="395.625"/><line style="stroke:#181818;stroke-width:1.0;" x1="964" x2="964" y1="395.625" y2="408.625"/><line style="stroke:#181818;stroke-width:1.0;" x1="923" x2="964" y1="408.625" y2="408.625"/><polygon fill="#181818" points="933,404.625,923,408.625,933,412.625,929,408.625" style="stroke:#181818;stroke-width:1.0;"/><text fill="#000000" font-family="sans-serif" font-size="13" lengthAdjust="spacing" textLength="44" x="929" y="390.5591">.save()</text><line style="stroke:#181818;stroke-width:1.0;" x1="1076" x2="1118" y1="437.7578" y2="437.7578"/><line style="stroke:#181818;stroke-width:1.0;" x1="1118" x2="1118" y1="437.7578" y2="450.7578"/><line style="stroke:#181818;stroke-width:1.0;" x1="1077" x2="1118" y1="450.7578" y2="450.7578"/><polygon fill="#181818" points="1087,446.7578,1077,450.7578,1087,454.7578,1083,450.7578" style="stroke:#181818;stroke-width:1.0;"/><text fill="#000000" font-family="sans-serif" font-size="13" lengthAdjust="spacing" textLength="44" x="1083" y="432.6919">.save()</text><line style="stroke:#181818;stroke-width:1.0;" x1="752" x2="794" y1="479.8906" y2="479.8906"/><line style="stroke:#181818;stroke-width:1.0;" x1="794" x2="794" y1="479.8906" y2="492.8906"/><line style="stroke:#181818;stroke-width:1.0;" x1="753" x2="794" y1="492.8906" y2="492.8906"/><polygon fill="#181818" points="763,488.8906,753,492.8906,763,496.8906,759,492.8906" style="stroke:#181818;stroke-width:1.0;"/><text fill="#000000" font-family="sans-serif" font-size="13" lengthAdjust="spacing" textLength="135" x="759" y="474.8247">statut = "approuv&#233;e"</text><line style="stroke:#181818;stroke-width:1.0;" x1="752" x2="794" y1="522.0234" y2="522.0234"/><line style="stroke:#181818;stroke-width:1.0;" x1="794" x2="794" y1="522.0234" y2="535.0234"/><line style="stroke:#181818;stroke-width:1.0;" x1="753" x2="794" y1="535.0234" y2="535.0234"/><polygon fill="#181818" points="763,531.0234,753,535.0234,763,539.0234,759,535.0234" style="stroke:#181818;stroke-width:1.0;"/><text fill="#000000" font-family="sans-serif" font-size="13" lengthAdjust="spacing" textLength="44" x="759" y="516.9575">.save()</text><polygon fill="#181818" points="282.5,560.1563,272.5,564.1563,282.5,568.1563,278.5,564.1563" style="stroke:#181818;stroke-width:1.0;"/><line style="stroke:#181818;stroke-width:1.0;stroke-dasharray:2.0,2.0;" x1="276.5" x2="537.5" y1="564.1563" y2="564.1563"/><text fill="#000000" font-family="sans-serif" font-size="13" lengthAdjust="spacing" textLength="28" x="288.5" y="559.0903">True</text><polygon fill="#181818" points="55.5,589.2891,45.5,593.2891,55.5,597.2891,51.5,593.2891" style="stroke:#181818;stroke-width:1.0;"/><line style="stroke:#181818;stroke-width:1.0;stroke-dasharray:2.0,2.0;" x1="49.5" x2="270.5" y1="593.2891" y2="593.2891"/><text fill="#000000" font-family="sans-serif" font-size="13" lengthAdjust="spacing" textLength="135" x="61.5" y="588.2231">Demande approuv&#233;e</text><line style="stroke:#000000;stroke-width:1.0;stroke-dasharray:2.0,2.0;" x1="10" x2="1230" y1="602.2891" y2="602.2891"/><text fill="#000000" font-family="sans-serif" font-size="11" font-weight="bold" lengthAdjust="spacing" textLength="137" x="15" y="612.4995">[Action == "Refuser"]</text><line style="stroke:#181818;stroke-width:1.0;" x1="752" x2="794" y1="637.2266" y2="637.2266"/><line style="stroke:#181818;stroke-width:1.0;" x1="794" x2="794" y1="637.2266" y2="650.2266"/><line style="stroke:#181818;stroke-width:1.0;" x1="753" x2="794" y1="650.2266" y2="650.2266"/><polygon fill="#181818" points="763,646.2266,753,650.2266,763,654.2266,759,650.2266" style="stroke:#181818;stroke-width:1.0;"/><text fill="#000000" font-family="sans-serif" font-size="13" lengthAdjust="spacing" textLength="115" x="759" y="632.1606">statut = "refus&#233;e"</text><line style="stroke:#181818;stroke-width:1.0;" x1="752" x2="794" y1="679.3594" y2="679.3594"/><line style="stroke:#181818;stroke-width:1.0;" x1="794" x2="794" y1="679.3594" y2="692.3594"/><line style="stroke:#181818;stroke-width:1.0;" x1="753" x2="794" y1="692.3594" y2="692.3594"/><polygon fill="#181818" points="763,688.3594,753,692.3594,763,696.3594,759,692.3594" style="stroke:#181818;stroke-width:1.0;"/><text fill="#000000" font-family="sans-serif" font-size="13" lengthAdjust="spacing" textLength="44" x="759" y="674.2935">.save()</text><polygon fill="#181818" points="282.5,717.4922,272.5,721.4922,282.5,725.4922,278.5,721.4922" style="stroke:#181818;stroke-width:1.0;"/><line style="stroke:#181818;stroke-width:1.0;stroke-dasharray:2.0,2.0;" x1="276.5" x2="537.5" y1="721.4922" y2="721.4922"/><text fill="#000000" font-family="sans-serif" font-size="13" lengthAdjust="spacing" textLength="33" x="288.5" y="716.4263">False</text><polygon fill="#181818" points="55.5,746.625,45.5,750.625,55.5,754.625,51.5,750.625" style="stroke:#181818;stroke-width:1.0;"/><line style="stroke:#181818;stroke-width:1.0;stroke-dasharray:2.0,2.0;" x1="49.5" x2="270.5" y1="750.625" y2="750.625"/><text fill="#000000" font-family="sans-serif" font-size="13" lengthAdjust="spacing" textLength="115" x="61.5" y="745.5591">Demande refus&#233;e</text><!--SRC=[bLF9QiCm4BthAmQV4aX3Jpq4KWW9FVLGqkLgfjOuY3fIeiLGIZyetv4VwqYExImaq9FHw6sZ6MFXZOMPN2ijFatG4kqtP2-u8gYnKXAzCZe3T11heZ3QMrD1zZv_o3ywmBmfKx09ofU2j5UUfHQqHYrfIRZPM5Chnt1DQxvEqCMoGxvwKtpD-MInoawhpwQ8DP5omjrZ2WCJc5Tg6mXSi92bDCG1J81iIMLmV109o0IEn7YMLfviBfjGWyCtLt84MCHEXa94A3CMIoQCL-G7IWu5d-uw6Mv41kL7iCOLEgL7i0qOyv8GM7cO9IcOJezIaGSNM-6mPQaSmmN0mUguyzRqu34yGwMNO0n3ScFpmX9w6bm6abHYgBoR_hJH9lU_KUp4wz9RxdU5tU_YVCYsRUrtBR6nFm-Zz2tETREnmve6mzlYFIZEu30Nvz473_p0QQr2lTzHTWhfUUdz-gLviu6uscm6bvkbcZ2vsGRe9GLLZex7sUtLbJGstlyZonEomSqmhIB_4F8F]--></g></svg>