<?xml version="1.0" encoding="us-ascii" standalone="no"?><svg xmlns="http://www.w3.org/2000/svg" xmlns:xlink="http://www.w3.org/1999/xlink" contentStyleType="text/css" height="368px" preserveAspectRatio="none" style="width:973px;height:368px;background:#FFFFFF;" version="1.1" viewBox="0 0 973 368" width="973px" zoomAndPan="magnify"><defs/><g><text fill="#000000" font-family="sans-serif" font-size="14" font-weight="bold" lengthAdjust="spacing" textLength="566" x="196.899" y="22.9951">Vue de D&#233;ploiement - Magasin Central (Django + PostgreSQL + Docker)</text><!--cluster dev--><g id="cluster_dev"><polygon fill="none" points="16,57.1522,26,47.1522,310,47.1522,310,201.1522,300,211.1522,16,211.1522,16,57.1522" style="stroke:#181818;stroke-width:1.0;"/><line style="stroke:#181818;stroke-width:1.0;" x1="300" x2="310" y1="57.1522" y2="47.1522"/><line style="stroke:#181818;stroke-width:1.0;" x1="16" x2="300" y1="57.1522" y2="57.1522"/><line style="stroke:#181818;stroke-width:1.0;" x1="300" x2="300" y1="57.1522" y2="211.1522"/><text fill="#000000" font-family="sans-serif" font-size="14" font-weight="bold" lengthAdjust="spacing" textLength="218" x="50" y="73.1473">Machine de d&#233;veloppement</text></g><!--cluster browser--><g id="cluster_browser"><polygon fill="none" points="85,105.1522,95,95.1522,286,95.1522,286,177.1522,276,187.1522,85,187.1522,85,105.1522" style="stroke:#181818;stroke-width:1.0;"/><line style="stroke:#181818;stroke-width:1.0;" x1="276" x2="286" y1="105.1522" y2="95.1522"/><line style="stroke:#181818;stroke-width:1.0;" x1="85" x2="276" y1="105.1522" y2="105.1522"/><line style="stroke:#181818;stroke-width:1.0;" x1="276" x2="276" y1="105.1522" y2="187.1522"/><text fill="#000000" font-family="sans-serif" font-size="14" font-weight="bold" lengthAdjust="spacing" textLength="125" x="119" y="121.1473">Navigateur Web</text></g><!--cluster GitHub--><g id="cluster_GitHub"><path d="M741.6127,60.5249 C746.3222,52.9146 750.5869,54.2331 755.6656,60.141 C758.5085,52.4927 764.147,51.4698 769.0827,58.1862 C772.6733,51.1268 778.203,49.262 783.4874,56.4769 C786.7916,48.8576 791.9742,48.9014 797.1239,54.5851 C801.3859,47.8815 807.7186,47.1182 811.5174,55.0409 C815.3337,47.482 822.031,45.6914 827.4275,53.3935 C830.7819,45.7064 835.764,44.2664 841.8333,50.6049 C847.8335,43.2969 852.381,45.0004 857.2199,51.8655 C864.1089,45.8579 868.2482,48.3136 871.5162,55.7237 C875.5556,49.2476 882.968,49.0983 886.8982,55.8508 C890.9312,51.1234 895.6015,50.5236 898.5651,56.9676 C904.5043,50.1381 910.0012,51.1018 913.8345,59.1317 C917.9034,52.5554 923.8429,53.6771 927.6948,59.3768 C937.0792,51.4265 947.2651,54.1421 949,67.1522 C950.16,66.5815 951.0655,67.3158 950.8752,68.5528 C957.691,72.6524 959.2233,78.605 951.7547,83.5426 C961.8688,87.8366 960.1138,95.3568 953.3673,101.1914 C962.0068,104.3144 962.3067,109.0861 957.502,115.9704 C965.1432,121.16 966.0434,126.7266 958.7821,133.0341 C966.798,139.3307 966.1812,144.8894 958.1166,150.5759 C964.3329,156.2482 961.8168,162.3092 954.7776,164.8893 C960.9102,171.7616 960.0947,176.9286 952.4107,181.8756 C960.2682,193.7715 956.1936,202.046 942,203.1522 C943.5048,203.9623 943.4117,204.8696 942.3359,205.9856 C938.3812,212.3244 932.9884,212.9146 927.9188,207.3341 C922.8636,214.3048 917.2214,213.2088 913.2259,206.2187 C910.8407,215.1469 905.3568,216.4262 898.9902,209.8818 C894.7858,215.6279 890.5819,215.0119 886.6819,209.5476 C883.9676,217.0603 876.1226,219.0245 870.606,212.8355 C867.5879,220.5876 860.4681,221.8162 855.5035,214.8301 C852.7499,221.2355 847.5895,221.3112 843.3067,216.4917 C838.5302,221.9746 831.3023,220.9514 828.549,214.0758 C821.9684,219.9296 817.4447,219.4457 813.9458,210.9414 C807.8762,218.3803 802.5653,217.0238 797.3036,210.011 C793.6659,216.3942 788.8951,215.7896 785.2926,209.9764 C779.9988,216.8403 772.7566,217.4583 768.9961,208.4063 C762.7544,214.9241 757.4595,212.1186 754.2592,205.0961 C742.8623,211.3558 735.5422,209.4406 732,196.1522 C732.9523,195.6208 733.6524,196.2156 733.6053,197.2062 C725.7298,194.3163 723.7827,187.9975 730.8768,182.357 C721.6225,178.4941 721.8731,172.8668 728.0073,166.2607 C719.1771,161.9727 717.7956,156.8484 724.8069,149.5301 C717.205,146.4445 714.2005,140.8872 720.4616,133.9381 C713.8839,127.3866 714.7759,121.2884 723.3235,117.3458 C716.7,110.0963 718.6585,104.1472 727.4726,100.7594 C720.9481,93.4098 723.6748,88.4211 731.7511,85.0475 C721.0802,74.2599 725.223,63.8212 739,60.1522 C739.9626,58.8822 741.0147,59.2392 741.6127,60.5249 " fill="none" style="stroke:#181818;stroke-width:1.0;"/><text fill="#000000" font-family="sans-serif" font-size="14" font-weight="bold" lengthAdjust="spacing" textLength="53" x="814" y="78.1473">GitHub</text></g><!--cluster CI/CD Pipeline--><g id="cluster_CI/CD Pipeline"><polygon fill="none" points="748,105.1522,758,95.1522,933,95.1522,933,177.1522,923,187.1522,748,187.1522,748,105.1522" style="stroke:#181818;stroke-width:1.0;"/><line style="stroke:#181818;stroke-width:1.0;" x1="923" x2="933" y1="105.1522" y2="95.1522"/><line style="stroke:#181818;stroke-width:1.0;" x1="748" x2="923" y1="105.1522" y2="105.1522"/><line style="stroke:#181818;stroke-width:1.0;" x1="923" x2="923" y1="105.1522" y2="187.1522"/><text fill="#000000" font-family="sans-serif" font-size="14" font-weight="bold" lengthAdjust="spacing" textLength="109" x="782" y="121.1473">CI/CD Pipeline</text></g><!--cluster docker_host--><g id="cluster_docker_host"><polygon fill="none" points="334,57.1522,344,47.1522,700,47.1522,700,341.1522,690,351.1522,334,351.1522,334,57.1522" style="stroke:#181818;stroke-width:1.0;"/><line style="stroke:#181818;stroke-width:1.0;" x1="690" x2="700" y1="57.1522" y2="47.1522"/><line style="stroke:#181818;stroke-width:1.0;" x1="334" x2="690" y1="57.1522" y2="57.1522"/><line style="stroke:#181818;stroke-width:1.0;" x1="690" x2="690" y1="57.1522" y2="351.1522"/><text fill="#000000" font-family="sans-serif" font-size="14" font-weight="bold" lengthAdjust="spacing" textLength="290" x="368" y="73.1473">Docker Host (serveur local ou cloud)</text></g><!--cluster container_web--><g id="cluster_container_web"><polygon fill="none" points="385,105.1522,395,95.1522,649,95.1522,649,177.1522,639,187.1522,385,187.1522,385,105.1522" style="stroke:#181818;stroke-width:1.0;"/><line style="stroke:#181818;stroke-width:1.0;" x1="639" x2="649" y1="105.1522" y2="95.1522"/><line style="stroke:#181818;stroke-width:1.0;" x1="385" x2="639" y1="105.1522" y2="105.1522"/><line style="stroke:#181818;stroke-width:1.0;" x1="639" x2="639" y1="105.1522" y2="187.1522"/><text fill="#000000" font-family="sans-serif" font-size="14" font-weight="bold" lengthAdjust="spacing" textLength="188" x="419" y="121.1473">Container Web (Django)</text></g><!--cluster container_db--><g id="cluster_container_db"><polygon fill="none" points="387,245.1522,397,235.1522,647,235.1522,647,317.1522,637,327.1522,387,327.1522,387,245.1522" style="stroke:#181818;stroke-width:1.0;"/><line style="stroke:#181818;stroke-width:1.0;" x1="637" x2="647" y1="245.1522" y2="235.1522"/><line style="stroke:#181818;stroke-width:1.0;" x1="387" x2="637" y1="245.1522" y2="245.1522"/><line style="stroke:#181818;stroke-width:1.0;" x1="637" x2="637" y1="245.1522" y2="327.1522"/><text fill="#000000" font-family="sans-serif" font-size="14" font-weight="bold" lengthAdjust="spacing" textLength="175" x="425.5" y="261.1473">Container PostgreSQL</text></g><!--entity user--><g id="elem_user"><rect fill="#F1F1F1" height="36.2969" rx="2.5" ry="2.5" style="stroke:#181818;stroke-width:0.5;" width="88" x="182" y="135.1522"/><text fill="#000000" font-family="sans-serif" font-size="14" lengthAdjust="spacing" textLength="68" x="192" y="158.1473">Utilisateur</text></g><!--entity github_actions--><g id="elem_github_actions"><rect fill="#F1F1F1" height="36.2969" rx="2.5" ry="2.5" style="stroke:#181818;stroke-width:0.5;" width="122" x="764" y="135.1522"/><text fill="#000000" font-family="sans-serif" font-size="14" lengthAdjust="spacing" textLength="102" x="774" y="158.1473">GitHub Actions</text></g><!--entity app_django--><g id="elem_app_django"><rect fill="#F1F1F1" height="36.2969" rx="2.5" ry="2.5" style="stroke:#181818;stroke-width:0.5;" width="148" x="443" y="135.1522"/><text fill="#000000" font-family="sans-serif" font-size="14" lengthAdjust="spacing" textLength="128" x="453" y="158.1473">Application Django</text></g><!--entity db_postgres--><g id="elem_db_postgres"><rect fill="#F1F1F1" height="36.2969" rx="2.5" ry="2.5" style="stroke:#181818;stroke-width:0.5;" width="228" x="403" y="275.1522"/><text fill="#000000" font-family="sans-serif" font-size="14" lengthAdjust="spacing" textLength="208" x="413" y="298.1473">Base de donn&#233;es PostgreSQL</text></g><!--link app_django to db_postgres--><g id="link_app_django_db_postgres"><path d="M517,171.1722 C517,197.9022 517,241.8122 517,268.7622 " fill="none" id="app_django-to-db_postgres" style="stroke:#181818;stroke-width:1.0;"/><polygon fill="#181818" points="517,274.7622,521,265.7622,517,269.7622,513,265.7622,517,274.7622" style="stroke:#181818;stroke-width:1.0;"/><text fill="#000000" font-family="sans-serif" font-size="13" lengthAdjust="spacing" textLength="94" x="422" y="219.0291">ORM psycopg2</text></g><!--link user to app_django--><g id="link_user_app_django"><path d="M270.2,153.1522 C315.99,153.1522 382.35,153.1522 436.91,153.1522 " fill="none" id="user-to-app_django" style="stroke:#181818;stroke-width:1.0;"/><polygon fill="#181818" points="442.91,153.1522,433.91,149.1522,437.91,153.1522,433.91,157.1522,442.91,153.1522" style="stroke:#181818;stroke-width:1.0;"/><text fill="#000000" font-family="sans-serif" font-size="13" lengthAdjust="spacing" textLength="32" x="323.55" y="149.2191">HTTP</text></g><!--link github_actions to app_django--><g id="link_github_actions_app_django"><path d="M763.78,153.1522 C714.13,153.1522 649.97,153.1522 597.15,153.1522 " fill="none" id="github_actions-to-app_django" style="stroke:#181818;stroke-width:1.0;"/><polygon fill="#181818" points="591.15,153.1522,600.15,157.1522,596.15,153.1522,600.15,149.1522,591.15,153.1522" style="stroke:#181818;stroke-width:1.0;"/><text fill="#000000" font-family="sans-serif" font-size="13" lengthAdjust="spacing" textLength="91" x="655.21" y="166.2191">Docker deploy</text></g><!--SRC=[RPF1Rjim38RlUWh2fnP3C6377WPa2R0KMBPipRQZeSYihLKH1ObE5mnze3n7Ncoqr2nUsei1ax_-_nDfisM7yAD7Q13cnqDmP76Bdc42IztgP3tCv3Lg1rVpNzgt16zWHOdRY7TVFydBdCm3nckbqeFrGKUz1MSzyZuWKEIEHWr3sq1U_EvuBxaH3Okbmv6amNlTErxZRvuws_eCO-I1KIbFWbajjUaaOK1kZeSTEWeXGrUWarHty4S15ErdlREjPkmZ_CHD5cmYFIQCMGHd9EY7elIhxsoTJVbG9PedzQIKSTGtK7sqlEZ5vXmmktqxcyFA1XnkNRrmRIrt_QRMXYtvbFsB2KnBwLz4yIlZX8MC6Aw4Q3UWEpAo0EeXOroNUsPXtGt24GvvrWAIhtjQMJbWJgtwKLgNd3g4kYaB7XYd8JXhz408nQHmlX9q_XekOfgNASsc3aLUHl51fx97ylvuaEB8x9Gt8fjCtlzdSGDVlYqXfBsXqBuRXfYNE8csxLYqewCti5YlL-fY7QyhdtVGeFmEU_KN]--></g></svg>